<svg width="199" height="100" viewBox="0 0 199 100" fill="none" xmlns="http://www.w3.org/2000/svg">
<g clip-path="url(#clip0_667_31445)">
<path d="M81.193 18.8742L88.1105 7.22456C88.1105 7.22456 80.2478 0 73.9564 0H58.538V48.7658H73.3242C73.3242 48.7658 83.7095 49.0849 91.2592 37.4413C98.8089 25.7977 113.908 0 113.908 0H99.1219L81.5061 30.1987C81.5061 30.1987 78.3573 36.8212 71.1207 36.177V12.2697C71.1207 12.2697 78.1286 12.2697 81.193 18.8922" fill="#FFCC00"/>
<path d="M94.7148 42.788L102.271 30.1992L113.908 48.7663H98.1766L94.7148 42.788Z" fill="#FFCC00"/>
<path d="M128.839 1.52344H139.489V31.3609C139.489 44.8106 136.051 48.7661 122.746 48.6818C120.224 48.6818 121.512 48.7962 117.093 48.3868L112.276 39.7715C113.752 40.2591 119.501 40.6083 121.578 40.6083C126.063 40.6083 128.863 38.5794 128.863 31.2947L128.839 1.52344Z" fill="#FFCC00"/>
<path d="M0.000610352 79.8249H0.0367332C0.351522 79.8478 0.667563 79.8032 0.963692 79.694C1.25982 79.5848 1.5292 79.4136 1.7538 79.1918C1.97839 78.9701 2.15302 78.7029 2.26598 78.4082C2.37895 78.1135 2.42764 77.798 2.4088 77.483V62.5522C2.42853 62.2367 2.38051 61.9206 2.26794 61.6251C2.15538 61.3297 1.98089 61.0617 1.75619 60.8393C1.53149 60.6169 1.2618 60.4452 0.965222 60.3356C0.668645 60.2261 0.352059 60.1813 0.0367332 60.2042H0.000610352V59.5059H10.8375C17.7971 59.5059 20.5244 64.7196 20.5244 69.9634C20.5244 75.3156 17.7971 80.5293 10.8375 80.5293H0.000610352V79.8249ZM10.0006 79.8249C14.516 79.8249 15.9488 74.9303 15.9488 70.0357C15.9488 65.141 14.516 60.2042 10.0006 60.2042H6.57496V79.8189L10.0006 79.8249Z" fill="#FFCC00"/>
<path d="M37.2439 75.3163C36.6614 76.914 35.6113 78.2992 34.2303 79.2914C32.8493 80.2837 31.2015 80.837 29.5015 80.8792C18.7971 80.8792 18.2011 62.6914 29.7424 62.6914C33.5894 62.6914 37.1596 64.2688 37.1957 67.7606H25.3534C24.5527 71.975 26.7923 77.7667 32.3492 77.7667C33.2677 77.7723 34.1709 77.5319 34.965 77.0703C35.7591 76.6086 36.415 75.9427 36.8646 75.1417L37.2439 75.3163ZM33.1921 67.0623C33.0115 64.931 32.2107 63.3898 29.7604 63.3898C27.5208 63.3898 26.0879 64.9671 25.4979 67.0623H33.1921Z" fill="#FFCC00"/>
<path d="M48.0856 76.2621L51.6979 65.8046C52.2217 64.3356 51.3487 63.7396 50.0182 63.7396H49.8797V63.0412H55.545V63.7396H55.3884C54.7346 63.6859 54.0825 63.8631 53.5458 64.2404C53.009 64.6177 52.6214 65.1712 52.4505 65.8046L47.3451 80.5306H45.4186L38.6756 65.624C38.0736 64.3296 37.4173 63.7335 36.2313 63.7335H36.1952V63.0352H44.1001V63.7335H44.0639C43.0826 63.7335 42.7334 64.3356 43.1187 65.2025L48.0856 76.2621Z" fill="#FFCC00"/>
<path d="M56.69 67.4303C56.7085 67.1361 56.6642 66.8414 56.56 66.5656C56.4558 66.2899 56.2942 66.0395 56.0857 65.831C55.8773 65.6226 55.6269 65.4609 55.3512 65.3568C55.0754 65.2526 54.7807 65.2083 54.4865 65.2268H54.3119V64.5284C55.516 64.5284 58.5744 64.5284 60.5371 62.1865H60.8862V77.4845C60.8678 77.7968 60.9158 78.1095 61.027 78.402C61.1382 78.6945 61.3101 78.9601 61.5313 79.1814C61.7526 79.4026 62.0182 79.5745 62.3107 79.6857C62.6031 79.7969 62.9158 79.8448 63.2282 79.8264H63.2643V80.5308H54.3119V79.8264H54.348C54.6604 79.8448 54.9731 79.7969 55.2656 79.6857C55.558 79.5745 55.8236 79.4026 56.0449 79.1814C56.2661 78.9601 56.438 78.6945 56.5492 78.402C56.6604 78.1095 56.7084 77.7968 56.69 77.4845V67.4303ZM58.8212 56.5934C59.2716 56.5923 59.7122 56.7247 60.0872 56.974C60.4622 57.2234 60.7548 57.5784 60.928 57.9941C61.1012 58.4098 61.1471 58.8676 61.06 59.3095C60.9729 59.7513 60.7566 60.1574 60.4386 60.4762C60.1205 60.7951 59.715 61.0124 59.2734 61.1007C58.8318 61.189 58.3739 61.1443 57.9578 60.9723C57.5416 60.8002 57.1858 60.5085 56.9355 60.1341C56.6851 59.7598 56.5515 59.3195 56.5515 58.8692C56.5331 58.5661 56.5792 58.2625 56.6867 57.9784C56.7942 57.6944 56.9606 57.4364 57.1751 57.2214C57.3895 57.0064 57.6471 56.8392 57.9308 56.731C58.2146 56.6227 58.518 56.5759 58.8212 56.5934Z" fill="#FFCC00"/>
<path d="M72.6018 60.6989C72.6204 60.4047 72.5761 60.11 72.4719 59.8342C72.3677 59.5585 72.206 59.3081 71.9976 59.0997C71.7892 58.8912 71.5388 58.7296 71.263 58.6254C70.9873 58.5212 70.6925 58.4769 70.3983 58.4954H70.2238V57.797C71.4278 57.797 74.4862 57.797 76.4489 55.4551H76.7981V70.6989H76.8342C77.4363 70.6989 78.4417 70.6327 80.2238 69.1637L84.2454 65.8043C85.4495 64.8229 84.8475 63.7392 83.5109 63.7392H83.3725V63.0409H89.0016V63.7392H88.827C87.5687 63.7392 86.5874 64.7928 84.5585 66.4665L81.2051 69.2359C80.3261 69.9403 79.6638 70.5665 78.3694 70.7049C81.7951 70.7049 84.3478 70.9156 85.5398 73.1553L88.231 78.2606C88.4494 78.7487 88.8097 79.1596 89.265 79.4399C89.7204 79.7202 90.2495 79.8568 90.7837 79.832V80.5364H88.5019C86.5452 80.5364 84.3719 80.6387 82.8366 77.49L80.8077 73.3299C79.7602 71.1625 77.1955 71.4093 76.8222 71.4093V77.49C76.8038 77.8024 76.8518 78.1151 76.963 78.4075C77.0741 78.7 77.246 78.9656 77.4673 79.1869C77.6885 79.4081 77.9541 79.58 78.2466 79.6912C78.5391 79.8024 78.8518 79.8504 79.1642 79.832H79.2003V80.5364H70.2238V79.832C70.5364 79.8503 70.8493 79.8023 71.1421 79.6912C71.4348 79.58 71.7008 79.4082 71.9225 79.1871C72.1442 78.966 72.3167 78.7004 72.4286 78.408C72.5405 78.1155 72.5892 77.8027 72.5717 77.49L72.6018 60.6989Z" fill="#FFCC00"/>
<path d="M100.229 77.0615C98.5494 78.2656 96.6951 80.9447 93.6487 80.9447C93.0435 80.9739 92.4388 80.8779 91.8725 80.6626C91.3061 80.4473 90.7904 80.1173 90.3574 79.6934C89.9245 79.2696 89.5838 78.7609 89.3566 78.1992C89.1294 77.6375 89.0206 77.035 89.037 76.4293C89.037 70.7279 97.0081 71.6129 97.0081 70.2041C97.0081 69.855 96.6228 69.8188 96.3459 69.8188C95.7137 69.8188 94.7685 69.9573 93.8955 69.9573C92.4627 69.9573 91.096 69.6081 91.096 67.7237C91.096 64.9603 95.7498 62.7207 98.9226 62.7207C102.095 62.7207 104.413 64.0873 104.449 67.4407V76.1825C104.43 76.4769 104.474 76.7721 104.577 77.0483C104.681 77.3245 104.843 77.5753 105.051 77.7839C105.26 77.9925 105.511 78.1542 105.787 78.258C106.063 78.3619 106.358 78.4055 106.653 78.386H106.828V79.0904C105.623 79.0904 102.559 79.0904 100.602 81.4323H100.253L100.229 77.0615ZM100.229 67.513C100.229 64.8881 98.6517 63.7683 97.1165 63.7683C96.7772 63.7463 96.437 63.7928 96.116 63.905C95.7951 64.0173 95.5 64.1929 95.2484 64.4216C94.9967 64.6502 94.7936 64.9271 94.6512 65.2358C94.5088 65.5445 94.4299 65.8788 94.4193 66.2186C94.4193 69.4696 97.7065 68.8435 97.7065 70.1379C97.6995 70.3983 97.6166 70.6511 97.4679 70.865C97.3193 71.0789 97.1113 71.2447 96.8697 71.342C95.5391 72.0043 93.1972 72.3234 93.1972 74.876C93.1972 76.5858 94.2086 77.7418 96.0268 77.7418C97.5605 77.7626 99.0526 77.2425 100.241 76.2728L100.229 67.513Z" fill="#FFCC00"/>
<path d="M108.616 67.4294C108.635 67.1357 108.591 66.8415 108.487 66.5662C108.383 66.2909 108.222 66.0408 108.014 65.8325C107.806 65.6242 107.557 65.4624 107.282 65.3578C107.007 65.2532 106.713 65.2082 106.419 65.2259H106.238V64.5275C107.442 64.5275 110.507 64.5275 112.47 62.1855H112.819V66.3457C114.354 64.389 116.431 62.7334 118.797 62.7334C121.452 62.7334 122.47 64.2024 122.783 66.4781C124.36 64.4492 126.395 62.7334 128.833 62.7334C132.12 62.7334 132.927 64.973 132.927 68.2241V77.4836C132.916 77.7999 132.97 78.1152 133.088 78.409C133.206 78.7028 133.384 78.9687 133.611 79.1894C133.838 79.4101 134.109 79.5807 134.406 79.6903C134.703 79.7999 135.019 79.8459 135.335 79.8255H135.371V80.5299H126.353V79.8255C126.665 79.8438 126.978 79.7958 127.271 79.6847C127.564 79.5736 127.83 79.4018 128.052 79.1807C128.273 78.9595 128.446 78.694 128.558 78.4015C128.669 78.109 128.718 77.7962 128.701 77.4836V67.5197C128.701 65.9423 127.792 65.2801 126.672 65.2801C125.894 65.3343 125.141 65.5714 124.472 65.9721C123.804 66.3728 123.239 66.9258 122.825 67.5859V67.7304L122.861 68.0435V77.4836C122.85 77.7972 122.904 78.1098 123.02 78.4015C123.136 78.6931 123.311 78.9574 123.535 79.1777C123.758 79.3979 124.025 79.5692 124.319 79.6808C124.612 79.7923 124.926 79.8416 125.239 79.8255H125.269V80.5299H116.311V79.8255H116.347C116.659 79.8439 116.972 79.7959 117.264 79.6848C117.557 79.5736 117.822 79.4017 118.044 79.1804C118.265 78.9592 118.437 78.6936 118.548 78.4011C118.659 78.1086 118.707 77.7959 118.689 77.4836V67.5197C118.689 65.9423 117.78 65.2801 116.666 65.2801C115.887 65.33 115.132 65.5653 114.463 65.9664C113.793 66.3675 113.23 66.9228 112.819 67.5859V77.4836C112.8 77.7959 112.848 78.1086 112.96 78.4011C113.071 78.6936 113.243 78.9592 113.464 79.1804C113.685 79.4017 113.951 79.5736 114.243 79.6848C114.536 79.7959 114.848 79.8439 115.161 79.8255H115.197V80.5299H106.238V79.8255H106.275C106.587 79.8439 106.9 79.7959 107.192 79.6848C107.485 79.5736 107.75 79.4017 107.971 79.1804C108.193 78.9592 108.365 78.6936 108.476 78.4011C108.587 78.1086 108.635 77.7959 108.616 77.4836V67.4294Z" fill="#FFCC00"/>
<path d="M146.25 77.0615C144.571 78.2656 142.716 80.9447 139.676 80.9447C139.07 80.9748 138.465 80.8793 137.898 80.6644C137.331 80.4495 136.814 80.1197 136.381 79.6957C135.947 79.2718 135.606 78.7628 135.378 78.2007C135.151 77.6386 135.042 77.0355 135.058 76.4293C135.058 70.7279 143.029 71.6129 143.029 70.2041C143.029 69.855 142.644 69.8188 142.367 69.8188C141.735 69.8188 140.79 69.9573 139.917 69.9573C138.484 69.9573 137.117 69.6081 137.117 67.7237C137.117 64.9603 141.771 62.7207 144.944 62.7207C148.117 62.7207 150.435 64.0873 150.471 67.4407V76.1825C150.451 76.4769 150.495 76.7721 150.599 77.0483C150.703 77.3245 150.864 77.5753 151.073 77.7839C151.281 77.9925 151.532 78.1542 151.808 78.258C152.085 78.3619 152.38 78.4055 152.674 78.386H152.849V79.0904C151.645 79.0904 148.58 79.0904 146.624 81.4323H146.275L146.25 77.0615ZM146.25 67.513C146.25 64.8881 144.673 63.7683 143.138 63.7683C142.799 63.7463 142.458 63.7928 142.137 63.905C141.816 64.0173 141.521 64.1929 141.27 64.4216C141.018 64.6502 140.815 64.9271 140.673 65.2358C140.53 65.5445 140.451 65.8788 140.441 66.2186C140.441 69.4696 143.728 68.8435 143.728 70.1379C143.721 70.3983 143.638 70.6511 143.489 70.865C143.341 71.0789 143.133 71.2447 142.891 71.342C141.56 72.0043 139.219 72.3234 139.219 74.876C139.184 75.2584 139.233 75.6437 139.363 76.005C139.493 76.3664 139.7 76.695 139.97 76.9679C140.24 77.2408 140.567 77.4514 140.927 77.5851C141.287 77.7188 141.671 77.7723 142.054 77.7418C143.588 77.7631 145.08 77.2429 146.269 76.2728L146.25 67.513Z" fill="#FFCC00"/>
<path d="M168.573 67.2014C168.573 68.9172 167.104 69.9648 165.497 69.9648C165.046 69.9982 164.597 69.8881 164.213 69.6501C163.829 69.4121 163.53 69.0586 163.359 68.6403C163.903 68.5624 164.4 68.2877 164.755 67.8683C165.11 67.4489 165.299 66.9139 165.286 66.3646C165.286 64.9317 164.082 63.3905 161.674 63.3905C158.423 63.3905 156.328 66.0876 156.358 69.5133C156.358 73.7276 158.91 77.7673 163.528 77.7673C164.446 77.7686 165.347 77.5263 166.14 77.0651C166.934 76.6039 167.59 75.9404 168.043 75.1424L168.423 75.317C167.843 76.9202 166.792 78.3102 165.406 79.3033C164.021 80.2965 162.367 80.8462 160.662 80.8799C155.244 80.8799 152.444 76.2622 152.444 71.6806C152.41 70.4941 152.619 69.3131 153.056 68.2096C153.493 67.1062 154.151 66.1033 154.989 65.2623C155.826 64.4213 156.827 63.7596 157.928 63.3178C159.03 62.8759 160.21 62.663 161.397 62.6921C164.016 62.6921 168.567 63.7758 168.567 67.2014" fill="#FFCC00"/>
<path d="M170.934 60.6989C170.953 60.4045 170.91 60.1093 170.806 59.8331C170.702 59.5569 170.54 59.3061 170.332 59.0975C170.123 58.8888 169.872 58.7272 169.596 58.6233C169.32 58.5195 169.025 58.4759 168.73 58.4954H168.574V57.797C169.778 57.797 172.842 57.797 174.799 55.4551H175.148V66.3642C176.954 64.3714 179.314 62.6917 182.078 62.6917C185.853 62.6917 187.147 65.9789 187.147 69.2299V77.484C187.132 77.7954 187.183 78.1064 187.296 78.3972C187.408 78.6879 187.58 78.952 187.801 79.1724C188.021 79.3929 188.285 79.5649 188.576 79.6774C188.867 79.7899 189.178 79.8405 189.489 79.8259H189.525V80.5303H180.555V79.8259H180.615C180.927 79.8443 181.24 79.7964 181.532 79.6852C181.825 79.574 182.09 79.4021 182.312 79.1809C182.533 78.9596 182.705 78.694 182.816 78.4015C182.927 78.109 182.975 77.7963 182.957 77.484V69.266C182.957 67.3455 182.469 65.0035 179.947 65.0035C178.14 65.0035 176.659 65.8765 175.13 67.4117V77.484C175.113 77.7966 175.161 78.1095 175.273 78.4019C175.385 78.6944 175.558 78.9599 175.779 79.1811C176.001 79.4022 176.267 79.574 176.56 79.6851C176.853 79.7963 177.166 79.8442 177.478 79.8259V80.5303H168.574V79.8259C168.886 79.8443 169.199 79.7964 169.491 79.6852C169.784 79.574 170.049 79.4021 170.271 79.1809C170.492 78.9596 170.664 78.694 170.775 78.4015C170.886 78.109 170.934 77.7963 170.916 77.484L170.934 60.6989Z" fill="#FFCC00"/>
<path d="M191.452 67.4291C191.471 67.1349 191.426 66.8401 191.322 66.5644C191.218 66.2887 191.056 66.0383 190.848 65.8298C190.639 65.6214 190.389 65.4597 190.113 65.3555C189.838 65.2514 189.543 65.2071 189.249 65.2256H189.074V64.5272C190.278 64.5272 193.343 64.5272 195.299 62.1852H195.666V77.4833C195.648 77.7956 195.696 78.1083 195.807 78.4008C195.918 78.6933 196.09 78.9589 196.311 79.1801C196.533 79.4014 196.798 79.5733 197.091 79.6844C197.383 79.7956 197.696 79.8436 198.008 79.8252H198.044V80.5296H189.086V79.8252H189.122C189.434 79.8418 189.745 79.7926 190.036 79.6806C190.327 79.5686 190.591 79.3965 190.811 79.1754C191.031 78.9544 191.202 78.6894 191.312 78.3978C191.423 78.1062 191.47 77.7945 191.452 77.4833V67.4291ZM193.583 56.5922C194.034 56.591 194.474 56.7235 194.849 56.9728C195.224 57.2222 195.517 57.5772 195.69 57.9929C195.863 58.4086 195.909 58.8664 195.822 59.3082C195.735 59.7501 195.519 60.1561 195.201 60.475C194.883 60.7939 194.477 61.0112 194.036 61.0995C193.594 61.1878 193.136 61.1431 192.72 60.971C192.304 60.799 191.948 60.5073 191.698 60.1329C191.447 59.7585 191.314 59.3183 191.314 58.868C191.295 58.5638 191.341 58.2591 191.45 57.9742C191.558 57.6893 191.725 57.4306 191.941 57.2154C192.157 57.0002 192.416 56.8333 192.701 56.7259C192.986 56.6184 193.291 56.5729 193.595 56.5922" fill="#FFCC00"/>
<path d="M48.3937 97.7433V95.8468L49.965 95.5157V98.6704H55.0764V90.4766H56.6598V97.7433C56.6598 99.5013 56.148 99.9949 54.4262 99.9949H50.6092C48.8934 99.9949 48.3937 99.5013 48.3937 97.7433Z" fill="#FFCC00"/>
<path d="M61.4812 90.4766H70.6504V91.7469H63.0646V94.4079H67.7003V95.6602H63.0646V98.6885H70.7226V99.9949H61.4812V90.4766Z" fill="#FFCC00"/>
<path d="M72.6261 90.4766H74.2336L76.8163 98.0383L79.6219 90.4766H80.6032L83.3124 98.0383L85.9133 90.4766H87.3341L83.8844 99.9949H82.7044L80.0674 92.8005L77.3341 99.9949H76.0758L72.6261 90.4766Z" fill="#FFCC00"/>
<path d="M90.3982 90.4766H91.9876V98.6704H99.2061V99.9949H90.3982V90.4766Z" fill="#FFCC00"/>
<path d="M102.451 90.4766H104.04V98.6704H111.253V99.9949H102.451V90.4766Z" fill="#FFCC00"/>
<path d="M114.504 90.4766H123.679V91.7469H116.093V94.4079H120.723V95.6602H116.093V98.6885H123.751V99.9949H114.504V90.4766Z" fill="#FFCC00"/>
<path d="M127.532 90.4766H135.214C136.593 90.4766 137.225 90.9943 137.225 92.3188V94.444C137.225 95.7746 136.593 96.2863 135.214 96.2863H133.812L138.164 100.001H135.804L131.927 96.2863H129.122V100.001H127.532V90.4766ZM129.122 91.7108V95.0521H134.582C135.287 95.0521 135.618 94.8835 135.618 94.0768V92.7162C135.618 91.9215 135.287 91.7348 134.582 91.7348L129.122 91.7108Z" fill="#FFCC00"/>
<path d="M144.552 95.8468L139.718 90.4766H141.693L145.419 94.721L148.983 90.4766H150.916L146.136 95.8047V99.9949H144.552V95.8468Z" fill="#FFCC00"/>
</g>
<defs>
<clipPath id="clip0_667_31445">
<rect width="198.037" height="100" fill="white" transform="translate(0.000244141)"/>
</clipPath>
</defs>
</svg>
